<svg width="24" height="25" viewBox="0 0 24 25" fill="none" xmlns="http://www.w3.org/2000/svg">
<path d="M2.00586 12.3398C2.00586 17.8628 6.48286 22.3398 12.0059 22.3398C17.5289 22.3398 22.0059 17.8628 22.0059 12.3398C22.0059 6.81684 17.5289 2.33984 12.0059 2.33984C6.48286 2.33984 2.00586 6.81684 2.00586 12.3398Z" stroke="black" stroke-width="1.5" stroke-linecap="round" stroke-linejoin="round"/>
<path d="M13.0087 2.39062C13.0087 2.39062 16.0087 6.34062 16.0087 12.3406C16.0087 18.3406 13.0087 22.2906 13.0087 22.2906M11.0087 22.2906C11.0087 22.2906 8.00867 18.3406 8.00867 12.3406C8.00867 6.34062 11.0087 2.39062 11.0087 2.39062M2.63867 15.8406H21.3787M2.63867 8.84062H21.3787" stroke="black" stroke-width="1.5" stroke-linecap="round" stroke-linejoin="round"/>
</svg>
