<svg width="20" height="20" viewBox="0 0 20 20" fill="none" xmlns="http://www.w3.org/2000/svg">
<path d="M14.7425 15.4962C15.7223 14.8082 16.5405 13.9151 17.1401 12.8789C17.7398 11.8427 18.1066 10.6884 18.215 9.49615H1.78105C1.88948 10.6884 2.25629 11.8427 2.85597 12.8789C3.45564 13.9151 4.2738 14.8082 5.25355 15.4962H14.7425ZM4.74805 16.9632C3.36788 16.082 2.23205 14.8672 1.44553 13.4311C0.659009 11.9949 0.247163 10.3836 0.248048 8.74615C0.248048 8.54724 0.327066 8.35648 0.467718 8.21582C0.60837 8.07517 0.799136 7.99615 0.998048 7.99615H18.9981C19.197 7.99615 19.3877 8.07517 19.5284 8.21582C19.669 8.35648 19.7481 8.54724 19.7481 8.74615C19.7489 10.3836 19.3371 11.9949 18.5506 13.4311C17.764 14.8672 16.6282 16.082 15.248 16.9632V18.4962C15.248 18.894 15.09 19.2755 14.8087 19.5568C14.5274 19.8381 14.1459 19.9962 13.748 19.9962H6.24805C5.85022 19.9962 5.46869 19.8381 5.18739 19.5568C4.90608 19.2755 4.74805 18.894 4.74805 18.4962V16.9632ZM9.55855 6.49615H7.43755L13.4 0.533654C13.4692 0.462021 13.552 0.404884 13.6435 0.365578C13.735 0.326271 13.8334 0.305581 13.933 0.304716C14.0326 0.30385 14.1313 0.322827 14.2235 0.360537C14.3157 0.398248 14.3994 0.453938 14.4698 0.524357C14.5403 0.594777 14.596 0.678516 14.6337 0.770688C14.6714 0.86286 14.6904 0.96162 14.6895 1.0612C14.6886 1.16079 14.6679 1.2592 14.6286 1.35071C14.5893 1.44221 14.5322 1.52497 14.4606 1.59415L9.55855 6.49615ZM13.949 6.49615H10.949L17.27 2.84665C17.4422 2.74877 17.6461 2.72295 17.8372 2.77484C18.0284 2.82673 18.1912 2.95212 18.2903 3.12363C18.3893 3.29515 18.4165 3.49887 18.3658 3.69034C18.3152 3.88181 18.1909 4.04549 18.02 4.14565L13.949 6.49615ZM6.24805 16.9962V18.4962H13.748V16.9962H6.24805Z" fill="black"/>
</svg>
