<svg width="25" height="25" viewBox="0 0 25 25" fill="none" xmlns="http://www.w3.org/2000/svg">
<path d="M20.3926 10.8633H4.39258V18.8633C4.39258 21.8633 5.39258 22.8633 8.39258 22.8633H16.3926C19.3926 22.8633 20.3926 21.8633 20.3926 18.8633V10.8633Z" stroke="#292D32" stroke-width="1.5" stroke-miterlimit="10" stroke-linecap="round" stroke-linejoin="round"/>
<path d="M21.9219 7.86328V8.86328C21.9219 9.96328 21.3919 10.8633 19.9219 10.8633H4.92188C3.39188 10.8633 2.92188 9.96328 2.92188 8.86328V7.86328C2.92188 6.76328 3.39188 5.86328 4.92188 5.86328H19.9219C21.3919 5.86328 21.9219 6.76328 21.9219 7.86328Z" stroke="#292D32" stroke-width="1.5" stroke-miterlimit="10" stroke-linecap="round" stroke-linejoin="round"/>
<path d="M12.0626 5.86469H6.54264C6.20264 5.49469 6.21264 4.92469 6.57264 4.56469L7.99264 3.14469C8.36264 2.77469 8.97264 2.77469 9.34264 3.14469L12.0626 5.86469Z" stroke="#292D32" stroke-width="1.5" stroke-miterlimit="10" stroke-linecap="round" stroke-linejoin="round"/>
<path d="M18.2915 5.86469H12.7715L15.4915 3.14469C15.8615 2.77469 16.4715 2.77469 16.8415 3.14469L18.2615 4.56469C18.6215 4.92469 18.6315 5.49469 18.2915 5.86469Z" stroke="#292D32" stroke-width="1.5" stroke-miterlimit="10" stroke-linecap="round" stroke-linejoin="round"/>
<path d="M9.36133 10.8633V16.0033C9.36133 16.8033 10.2413 17.2733 10.9113 16.8433L11.8513 16.2233C12.1913 16.0033 12.6213 16.0033 12.9513 16.2233L13.8413 16.8233C14.5013 17.2633 15.3913 16.7933 15.3913 15.9933V10.8633H9.36133Z" stroke="#292D32" stroke-width="1.5" stroke-miterlimit="10" stroke-linecap="round" stroke-linejoin="round"/>
</svg>
