<svg width="15" height="19" viewBox="0 0 15 19" fill="none" xmlns="http://www.w3.org/2000/svg">
<path d="M7.89404 0.875C6.03574 0.877205 4.25419 1.61639 2.94017 2.93041C1.62615 4.24442 0.886971 6.02598 0.884766 7.88428C0.884766 13.8817 7.25684 18.4119 7.52815 18.6017C7.63545 18.6766 7.76317 18.7168 7.89404 18.7168C8.02492 18.7168 8.15264 18.6766 8.25994 18.6017C8.53125 18.4119 14.9033 13.8817 14.9033 7.88428C14.9011 6.02598 14.1619 4.24442 12.8479 2.93041C11.5339 1.61639 9.75234 0.877205 7.89404 0.875ZM7.89451 5.33568C8.39862 5.33568 8.89141 5.48517 9.31056 5.76524C9.72972 6.0453 10.0564 6.44338 10.2493 6.90911C10.4422 7.37485 10.4927 7.88734 10.3944 8.38176C10.296 8.87618 10.0533 9.33034 9.6968 9.6868C9.34034 10.0433 8.88619 10.286 8.39176 10.3844C7.89734 10.4827 7.38485 10.4322 6.91912 10.2393C6.45338 10.0464 6.05531 9.71971 5.77524 9.30056C5.49517 8.88141 5.34568 8.38862 5.34568 7.88451C5.34567 7.54979 5.41159 7.21835 5.53968 6.9091C5.66777 6.59986 5.85551 6.31888 6.09219 6.08219C6.32888 5.84551 6.60986 5.65777 6.9191 5.52968C7.22835 5.40159 7.55979 5.33567 7.89451 5.33568Z" fill="#32B768"/>
</svg>
