<svg width="24" height="24" viewBox="0 0 24 24" fill="none" xmlns="http://www.w3.org/2000/svg">
<path d="M16.998 9C16.998 12.87 13.638 16 9.49805 16L8.56805 17.12L8.01805 17.78C7.54805 18.34 6.64804 18.22 6.33804 17.55L4.99805 14.6C3.17805 13.32 1.99805 11.29 1.99805 9C1.99805 5.13 5.35805 2 9.49805 2C12.518 2 15.128 3.67001 16.298 6.07001C16.748 6.96001 16.998 7.95 16.998 9Z" stroke="#292D32" stroke-width="1.5" stroke-linecap="round" stroke-linejoin="round"/>
<path d="M21.9984 12.8603C21.9984 15.1503 20.8184 17.1803 18.9984 18.4603L17.6584 21.4103C17.3484 22.0803 16.4483 22.2103 15.9783 21.6403L14.4984 19.8603C12.0784 19.8603 9.91836 18.7903 8.56836 17.1203L9.49835 16.0003C13.6384 16.0003 16.9984 12.8703 16.9984 9.00031C16.9984 7.95031 16.7484 6.96031 16.2984 6.07031C19.5684 6.82031 21.9984 9.58029 21.9984 12.8603Z" stroke="#292D32" stroke-width="1.5" stroke-linecap="round" stroke-linejoin="round"/>
<path d="M6.99805 9H11.998" stroke="#292D32" stroke-width="1.5" stroke-linecap="round" stroke-linejoin="round"/>
</svg>
