<svg width="24" height="24" viewBox="0 0 24 24" fill="none" xmlns="http://www.w3.org/2000/svg">
<path d="M8.49805 19H7.99805C3.99805 19 1.99805 18 1.99805 13V8C1.99805 4 3.99805 2 7.99805 2H15.998C19.998 2 21.998 4 21.998 8V13C21.998 17 19.998 19 15.998 19H15.498C15.188 19 14.888 19.15 14.698 19.4L13.198 21.4C12.538 22.28 11.458 22.28 10.798 21.4L9.29805 19.4C9.13805 19.18 8.76805 19 8.49805 19Z" stroke="#292D32" stroke-width="1.5" stroke-miterlimit="10" stroke-linecap="round" stroke-linejoin="round"/>
<path d="M15.9945 11H16.0035" stroke="#292D32" stroke-width="2" stroke-linecap="round" stroke-linejoin="round"/>
<path d="M11.9945 11H12.0035" stroke="#292D32" stroke-width="2" stroke-linecap="round" stroke-linejoin="round"/>
<path d="M7.99255 11H8.00154" stroke="#292D32" stroke-width="2" stroke-linecap="round" stroke-linejoin="round"/>
</svg>
