<svg width="24" height="24" viewBox="0 0 24 24" fill="none" xmlns="http://www.w3.org/2000/svg">
<path d="M11.998 12C14.7595 12 16.998 9.76142 16.998 7C16.998 4.23858 14.7595 2 11.998 2C9.23662 2 6.99805 4.23858 6.99805 7C6.99805 9.76142 9.23662 12 11.998 12Z" stroke="#292D32" stroke-width="1.5" stroke-linecap="round" stroke-linejoin="round"/>
<path d="M3.4082 22C3.4082 18.13 7.2582 15 11.9982 15C12.9582 15 13.8882 15.13 14.7582 15.37" stroke="#292D32" stroke-width="1.5" stroke-linecap="round" stroke-linejoin="round"/>
<path d="M21.998 18C21.998 18.32 21.9581 18.63 21.8781 18.93C21.7881 19.33 21.6281 19.72 21.4181 20.06C20.7281 21.22 19.458 22 17.998 22C16.968 22 16.038 21.61 15.338 20.97C15.038 20.71 14.778 20.4 14.578 20.06C14.208 19.46 13.998 18.75 13.998 18C13.998 16.92 14.4281 15.93 15.1281 15.21C15.8581 14.46 16.878 14 17.998 14C19.178 14 20.248 14.51 20.968 15.33C21.608 16.04 21.998 16.98 21.998 18Z" stroke="#292D32" stroke-width="1.5" stroke-miterlimit="10" stroke-linecap="round" stroke-linejoin="round"/>
<path d="M19.4878 17.9805H16.5078" stroke="#292D32" stroke-width="1.5" stroke-miterlimit="10" stroke-linecap="round" stroke-linejoin="round"/>
<path d="M17.998 16.5195V19.5095" stroke="#292D32" stroke-width="1.5" stroke-miterlimit="10" stroke-linecap="round" stroke-linejoin="round"/>
</svg>
