<svg width="20" height="18" viewBox="0 0 20 18" fill="none" xmlns="http://www.w3.org/2000/svg">
<path d="M19.709 8.29279L11.709 0.292787C11.5691 0.152977 11.3909 0.057771 11.197 0.0192035C11.003 -0.0193641 10.802 0.000438951 10.6193 0.076109C10.4366 0.151779 10.2804 0.279918 10.1706 0.444328C10.0607 0.608738 10.002 0.802037 10.002 0.999787V4.54479C7.27024 4.79758 4.73118 6.06065 2.88164 8.08681C1.03211 10.113 0.00522486 12.7564 0.00195312 15.4998V16.9998C0.00211098 17.2074 0.0668628 17.4098 0.187227 17.5789C0.307592 17.748 0.477602 17.8755 0.673679 17.9436C0.869755 18.0118 1.08218 18.0172 1.28148 17.9592C1.48079 17.9011 1.6571 17.7825 1.78595 17.6198C2.7658 16.4549 3.96789 15.4969 5.32205 14.8017C6.67621 14.1065 8.1553 13.6881 9.67295 13.5708C9.72295 13.5648 9.84795 13.5548 10.002 13.5448V16.9998C10.002 17.1975 10.0607 17.3908 10.1706 17.5552C10.2804 17.7197 10.4366 17.8478 10.6193 17.9235C10.802 17.9991 11.003 18.0189 11.197 17.9804C11.3909 17.9418 11.5691 17.8466 11.709 17.7068L19.709 9.70679C19.8964 9.51926 20.0017 9.26495 20.0017 8.99979C20.0017 8.73462 19.8964 8.48032 19.709 8.29279ZM12.002 14.5858V12.4998C12.002 12.2346 11.8966 11.9802 11.7091 11.7927C11.5215 11.6051 11.2672 11.4998 11.002 11.4998C10.747 11.4998 9.70595 11.5498 9.43995 11.5848C6.74475 11.8328 4.17923 12.8568 2.05395 14.5328C2.2952 12.3272 3.34149 10.2881 4.99251 8.80595C6.64352 7.32376 8.78323 6.50263 11.002 6.49979C11.2672 6.49979 11.5215 6.39443 11.7091 6.20689C11.8966 6.01936 12.002 5.765 12.002 5.49979V3.41379L17.588 8.99979L12.002 14.5858Z" fill="black"/>
</svg>
