<svg width="25" height="24" viewBox="0 0 25 24" fill="none" xmlns="http://www.w3.org/2000/svg">
<path d="M18.5322 13.55C18.1122 13.96 17.8722 14.55 17.9322 15.18C18.0222 16.26 19.0122 17.05 20.0922 17.05H21.9922V18.24C21.9922 20.31 20.3022 22 18.2322 22H6.75219C4.68219 22 2.99219 20.31 2.99219 18.24V11.51C2.99219 9.44001 4.68219 7.75 6.75219 7.75H18.2322C20.3022 7.75 21.9922 9.44001 21.9922 11.51V12.95H19.9722C19.4122 12.95 18.9022 13.17 18.5322 13.55Z" stroke="#878787" stroke-width="1.5" stroke-linecap="round" stroke-linejoin="round"/>
<path d="M2.99219 12.4098V7.83986C2.99219 6.64986 3.72219 5.58982 4.83219 5.16982L12.7722 2.16982C14.0122 1.69982 15.3422 2.61985 15.3422 3.94985V7.74983" stroke="#878787" stroke-width="1.5" stroke-linecap="round" stroke-linejoin="round"/>
<path d="M23.051 13.9702V16.0302C23.051 16.5802 22.611 17.0302 22.051 17.0502H20.091C19.011 17.0502 18.021 16.2602 17.931 15.1802C17.871 14.5502 18.111 13.9602 18.531 13.5502C18.901 13.1702 19.411 12.9502 19.971 12.9502H22.051C22.611 12.9702 23.051 13.4202 23.051 13.9702Z" stroke="#878787" stroke-width="1.5" stroke-linecap="round" stroke-linejoin="round"/>
<path d="M7.49219 12H14.4922" stroke="#878787" stroke-width="1.5" stroke-linecap="round" stroke-linejoin="round"/>
</svg>
